Coordinates
version=1
nRows=28
nColumns=34
inDegrees=no

Units are S.I. units (second, meters, Newtons, ...)
If the header above contains a line with 'inDegrees', this indicates whether rotational values are in degrees (yes) or radians (no).

endheader
time	pelvis_tilt	pelvis_list	pelvis_rotation	pelvis_tx	pelvis_ty	pelvis_tz	hip_flexion_r	hip_adduction_r	hip_rotation_r	knee_angle_r	ankle_angle_r	subtalar_angle_r	mtp_angle_r	hip_flexion_l	hip_adduction_l	hip_rotation_l	knee_angle_l	ankle_angle_l	subtalar_angle_l	mtp_angle_l	lumbar_extension	lumbar_bending	lumbar_rotation	arm_flex_r	arm_add_r	arm_rot_r	elbow_flex_r	pro_sup_r	arm_flex_l	arm_add_l	arm_rot_l	elbow_flex_l	pro_sup_l
1.72	-0.388647	0.0818814	-0.00935459	-0.278085	0.588261	-0.579141	1.66591	-0.0660757	0.258106	1.98603	0.654183	-0.279151	-0.125806	1.71031	-0.101323	0.00397896	1.92995	0.584256	-0.214804	-0.124867	-0.504808	-0.0798057	-0.119494	1.25893	0.00314486	0.190974	1.83332	1.62097	1.36598	-0.0836385	0.342346	1.75512	1.42923
1.73	-0.393673	0.0763377	-0.00723053	-0.276239	0.592166	-0.578994	1.65527	-0.0638703	0.252148	1.97213	0.648281	-0.287751	-0.125797	1.7046	-0.100101	0.00863633	1.91837	0.578873	-0.212614	-0.124866	-0.492349	-0.0761364	-0.125116	1.34765	0.0160912	0.205641	1.85131	1.64403	1.46053	-0.0712038	0.372043	1.7663	1.43438
1.74	-0.39852	0.0703814	-0.004709	-0.27398	0.596578	-0.578809	1.64338	-0.0617579	0.245698	1.95724	0.640705	-0.297276	-0.125789	1.6977	-0.0982789	0.013772	1.90573	0.572319	-0.210913	-0.124864	-0.478098	-0.0721957	-0.130729	1.43317	0.0261146	0.21442	1.86883	1.66211	1.55273	-0.0609207	0.396727	1.77543	1.4367
1.75	-0.403084	0.0642713	-0.00178163	-0.271301	0.601524	-0.578584	1.63032	-0.0598667	0.238994	1.94147	0.631428	-0.307598	-0.12578	1.68954	-0.0958156	0.0191747	1.89207	0.564305	-0.209803	-0.124862	-0.462213	-0.0682835	-0.13611	1.51494	0.0323926	0.218087	1.88567	1.67396	1.64244	-0.0528489	0.417236	1.7817	1.43575
1.76	-0.407295	0.0582543	0.00152768	-0.268208	0.60703	-0.578329	1.61612	-0.058333	0.2322	1.92482	0.62049	-0.318608	-0.125772	1.68008	-0.0927719	0.0246049	1.8774	0.554585	-0.2093	-0.12486	-0.444889	-0.0646481	-0.141203	1.59263	0.034392	0.217767	1.90146	1.67921	1.72952	-0.047177	0.434562	1.78465	1.43157
1.77	-0.411095	0.0525329	0.00515661	-0.264724	0.613117	-0.578058	1.60081	-0.0572726	0.225392	1.90723	0.607971	-0.330218	-0.125763	1.66925	-0.0892958	0.0298288	1.8617	0.542999	-0.209346	-0.124858	-0.426371	-0.0614541	-0.146073	1.66615	0.0319095	0.214853	1.91574	1.67818	1.81384	-0.0442024	0.449871	1.78417	1.42465
1.78	-0.414424	0.0472426	0.00899968	-0.260877	0.619803	-0.577783	1.58435	-0.056746	0.218574	1.88859	0.593972	-0.342332	-0.125754	1.65698	-0.0855938	0.0346521	1.84492	0.529495	-0.209852	-0.124857	-0.406948	-0.0587664	-0.150821	1.73557	0.0250471	0.210909	1.92791	1.67176	1.8954	-0.0442618	0.464482	1.7804	1.41603
1.79	-0.417226	0.0424508	0.0129076	-0.256698	0.627102	-0.577512	1.56669	-0.0567309	0.211724	1.8688	0.578602	-0.354829	-0.125746	1.64317	-0.0818957	0.0389377	1.82699	0.51414	-0.210742	-0.124855	-0.386907	-0.0565667	-0.155515	1.80116	0.0141546	0.207564	1.93724	1.66115	1.97434	-0.0476411	0.479819	1.77356	1.40709
1.8	-0.41947	0.0381678	0.0166931	-0.25222	0.635013	-0.577247	1.54778	-0.0571195	0.204836	1.84773	0.561979	-0.367525	-0.125737	1.62775	-0.0784252	0.0426042	1.80782	0.49712	-0.211982	-0.124853	-0.366486	-0.0547947	-0.160143	1.86334	-0.000242464	0.206377	1.943	1.64769	2.0509	-0.0544848	0.497323	1.76387	1.39913
1.81	-0.421161	0.0343649	0.0201463	-0.247476	0.643526	-0.576977	1.52764	-0.0577433	0.197957	1.82526	0.544229	-0.380159	-0.125729	1.61066	-0.0753797	0.0456157	1.78731	0.478708	-0.213593	-0.124851	-0.345829	-0.0533873	-0.164598	1.92256	-0.0175191	0.208719	1.94447	1.6325	2.12538	-0.0647203	0.518328	1.75154	1.39291
1.82	-0.422369	0.0310068	0.0230556	-0.242496	0.652614	-0.576687	1.50631	-0.0584081	0.191179	1.80125	0.525502	-0.392391	-0.12572	1.59192	-0.0729164	0.0479756	1.76532	0.45923	-0.215636	-0.124849	-0.324984	-0.0522881	-0.168682	1.97929	-0.0370203	0.21564	1.94115	1.61647	2.19806	-0.0780086	0.543897	1.73672	1.3886
1.83	-0.423213	0.0280509	0.0252257	-0.237315	0.662237	-0.576359	1.48382	-0.0589188	0.184624	1.77548	0.505979	-0.403843	-0.125712	1.57152	-0.0711454	0.0497263	1.74166	0.439015	-0.218183	-0.124848	-0.30394	-0.0514524	-0.172123	2.03396	-0.0581133	0.227796	1.93276	1.60009	2.2691	-0.0937424	0.574651	1.71948	1.38579
1.84	-0.423831	0.0254373	0.0264899	-0.23196	0.672354	-0.575975	1.46015	-0.0590833	0.178413	1.74768	0.485865	-0.414176	-0.125703	1.54948	-0.0701408	0.050952	1.71615	0.418354	-0.22128	-0.124846	-0.282646	-0.0508399	-0.17458	2.08691	-0.0802228	0.245444	1.91933	1.58308	2.3385	-0.11109	0.610636	1.69981	1.38369
1.85	-0.424353	0.023082	0.0267153	-0.22645	0.682948	-0.575527	1.43524	-0.0587083	0.172633	1.71758	0.465374	-0.423194	-0.125695	1.52583	-0.0699657	0.0517744	1.68861	0.397457	-0.224924	-0.124844	-0.261027	-0.0504009	-0.175657	2.13838	-0.10285	0.268439	1.90108	1.56465	2.40598	-0.129072	0.651252	1.67762	1.38139
1.86	-0.424884	0.0208783	0.0258081	-0.220804	0.694003	-0.575001	1.40898	-0.0576049	0.167311	1.68486	0.44468	-0.430927	-0.125686	1.50063	-0.070693	0.052332	1.65897	0.376428	-0.22907	-0.124842	-0.238988	-0.0500612	-0.174927	2.18848	-0.125571	0.296245	1.87828	1.54407	2.47099	-0.146663	0.69526	1.65267	1.37818
1.87	-0.425491	0.0187058	0.0237235	-0.215038	0.705515	-0.57439	1.38127	-0.055611	0.162406	1.6493	0.423858	-0.437669	-0.125678	1.47398	-0.0724083	0.0527525	1.62722	0.355246	-0.233658	-0.124841	-0.21643	-0.0497135	-0.171972	2.23719	-0.148015	0.327957	1.85116	1.52116	2.5327	-0.1629	0.740894	1.62467	1.37379
1.88	-0.426196	0.0164422	0.0204782	-0.20916	0.71749	-0.5737	1.35198	-0.0526295	0.15782	1.61073	0.402791	-0.443944	-0.125669	1.44601	-0.0751924	0.0531256	1.59343	0.333743	-0.238665	-0.124839	-0.19328	-0.0492142	-0.166443	2.2844	-0.169815	0.362368	1.81977	1.49674	2.59015	-0.176991	0.78607	1.59332	1.36845
1.89	-0.426961	0.0139764	0.0161597	-0.203176	0.729944	-0.572945	1.32106	-0.0486707	0.153423	1.56907	0.381108	-0.450408	-0.125661	1.41679	-0.079093	0.0534779	1.55767	0.311611	-0.244138	-0.124837	-0.169546	-0.0483954	-0.158113	2.32991	-0.190558	0.398088	1.78399	1.47262	2.64233	-0.188404	0.828674	1.55839	1.36292
1.9	-0.427668	0.0112297	0.0109263	-0.197094	0.742908	-0.572142	1.28845	-0.04388	0.149101	1.52435	0.358144	-0.457712	-0.125652	1.38634	-0.0840973	0.053751	1.51999	0.288403	-0.250188	-0.124835	-0.145357	-0.0470901	-0.146928	2.37353	-0.209734	0.433727	1.74352	1.45126	2.68841	-0.196912	0.866907	1.51979	1.35821
1.91	-0.42811	0.00818863	0.00499992	-0.19092	0.756432	-0.571319	1.2541	-0.0385482	0.144792	1.47669	0.332954	-0.466351	-0.125644	1.35454	-0.090111	0.0537885	1.48037	0.26356	-0.256945	-0.124833	-0.120989	-0.0451662	-0.133038	2.41509	-0.226728	0.468106	1.69806	1.43484	2.72789	-0.202608	0.899613	1.4776	1.35526
1.92	-0.427979	0.0049269	-0.0013507	-0.184656	0.770581	-0.57051	1.21792	-0.033112	0.140488	1.4262	0.304389	-0.476511	-0.125635	1.32106	-0.0969426	0.0533373	1.43859	0.236434	-0.264469	-0.124832	-0.0968572	-0.0425675	-0.116795	2.45449	-0.240844	0.500407	1.64736	1.42477	2.76069	-0.205857	0.926494	1.43212	1.35473
1.93	-0.426897	0.00160787	-0.00783104	-0.1783	0.785437	-0.569745	1.17975	-0.0281378	0.136195	1.3729	0.271202	-0.487932	-0.125627	1.2854	-0.104299	0.0520642	1.39423	0.206303	-0.272635	-0.12483	-0.0734829	-0.039352	-0.0987028	2.49165	-0.251404	0.530237	1.59145	1.4216	2.78714	-0.207178	0.948138	1.38375	1.35686
1.94	-0.424457	-0.00152452	-0.0141459	-0.171843	0.801085	-0.569053	1.13926	-0.0242797	0.131852	1.31661	0.23218	-0.499809	-0.125618	1.24684	-0.111797	0.0495803	1.34657	0.172376	-0.281037	-0.124828	-0.051427	-0.0357089	-0.0793475	2.52649	-0.257888	0.557604	1.53067	1.42496	2.80787	-0.207098	0.965858	1.33298	1.36151
1.95	-0.420265	-0.00417559	-0.0200242	-0.165285	0.81761	-0.568465	1.096	-0.0222107	0.127238	1.25686	0.186279	-0.510747	-0.12561	1.20448	-0.119006	0.0454627	1.29458	0.133804	-0.288891	-0.124826	-0.0312177	-0.031946	-0.0593315	2.5588	-0.260042	0.582815	1.46578	1.43379	2.82364	-0.206021	0.981419	1.28033	1.36812
1.96	-0.413977	-0.00605829	-0.0252449	-0.158622	0.835085	-0.568003	1.04936	-0.0225247	0.121891	1.19286	0.132733	-0.518777	-0.125601	1.15734	-0.125503	0.0392782	1.23697	0.089706	-0.294987	-0.124825	-0.0132849	-0.0284352	-0.0392242	2.58829	-0.257919	0.606346	1.39791	1.4464	2.83524	-0.204178	0.996712	1.22634	1.37576
1.97	-0.405353	-0.00696637	-0.0296575	-0.151861	0.853551	-0.567669	0.998654	-0.0256215	0.11505	1.12355	0.0711422	-0.521472	-0.125593	1.10453	-0.130954	0.030614	1.17232	0.0392288	-0.297695	-0.124823	0.00209908	-0.0255172	-0.0195234	2.61455	-0.25185	0.628715	1.3284	1.46069	2.84334	-0.201644	1.01345	1.17159	1.38329
1.98	-0.394317	-0.00684492	-0.0331944	-0.145012	0.873009	-0.567462	0.94329	-0.0315975	0.105663	1.04778	0.00153533	-0.51616	-0.125584	1.04537	-0.135178	0.0191149	1.09926	-0.0183531	-0.295073	-0.124821	0.0148685	-0.0233987	-0.000625378	2.63713	-0.242383	0.650408	1.25871	1.47449	2.84847	-0.198405	1.03287	1.1168	1.38961
1.99	-0.381006	-0.00582808	-0.0358669	-0.138069	0.893413	-0.567366	0.882926	-0.0401798	0.0924658	0.964571	-0.0755805	-0.500261	-0.125575	0.979653	-0.138174	0.00451315	1.01674	-0.083494	-0.285105	-0.124819	0.0251934	-0.0220755	0.0171906	2.6556	-0.230204	0.671837	1.19015	1.48612	2.85094	-0.194419	1.05556	1.06278	1.39403
